<svg width="196" height="21" viewBox="0 0 196 21" fill="none" xmlns="http://www.w3.org/2000/svg">
<path d="M17.52 16.016H11.616V14.992L13.12 13.808V6.528L9.248 16.016H7.712L3.728 6.384V14.16L5.552 14.848L4.96 16.016H0.704V14.992L2.208 13.808V5.296L0.416 4.576L0.992 3.424H5.808L9.36 11.968L12.832 3.424H17.824V4.432L16.304 5.616V14.384L18.112 14.848L17.52 16.016ZM19.8916 18.304L18.5796 18.016L22.8036 0.863999L24.1316 1.136L19.8916 18.304ZM31.4511 13.424C31.4511 13.104 31.3231 12.8 31.0671 12.512C30.8218 12.224 30.5178 11.9627 30.1551 11.728C29.7925 11.4827 29.2858 11.1733 28.6351 10.8C27.8351 10.3413 27.1951 9.952 26.7151 9.632C26.2351 9.30133 25.8245 8.91733 25.4831 8.48C25.1418 8.032 24.9711 7.54133 24.9711 7.008C24.9711 6.47467 25.2218 5.904 25.7231 5.296C26.2245 4.67733 26.8378 4.16 27.5631 3.744C28.2991 3.31733 28.9711 3.104 29.5791 3.104C30.3151 3.104 31.1738 3.184 32.1551 3.344C33.1471 3.504 33.8725 3.67467 34.3311 3.856V7.472H32.5391C32.1338 6.608 31.6698 5.936 31.1471 5.456C30.6245 4.976 30.0805 4.736 29.5151 4.736C29.1418 4.736 28.8485 4.85867 28.6351 5.104C28.4218 5.33867 28.3151 5.64267 28.3151 6.016C28.3151 6.35733 28.4431 6.68267 28.6991 6.992C28.9551 7.29067 29.2698 7.568 29.6431 7.824C30.0271 8.06933 30.5498 8.37333 31.2111 8.736C31.9898 9.17333 32.6138 9.552 33.0831 9.872C33.5631 10.192 33.9685 10.5707 34.2991 11.008C34.6405 11.4347 34.8111 11.9093 34.8111 12.432C34.8111 12.9653 34.5391 13.5413 33.9951 14.16C33.4618 14.768 32.8111 15.2853 32.0431 15.712C31.2751 16.128 30.5711 16.336 29.9311 16.336C29.1525 16.336 28.2351 16.256 27.1791 16.096C26.1231 15.936 25.3605 15.7653 24.8911 15.584V11.952H26.6671C27.1045 12.816 27.6165 13.488 28.2031 13.968C28.8005 14.448 29.4031 14.688 30.0111 14.688C30.4485 14.688 30.7951 14.5653 31.0511 14.32C31.3178 14.0747 31.4511 13.776 31.4511 13.424ZM47.059 14.832L46.483 16H40.579V14.976L42.083 13.68V5.072L40.291 4.576L40.867 3.424H46.771V4.432L45.251 5.744V14.336L47.059 14.832ZM53.763 16H50.211L45.779 9.696L50.307 5.696L48.435 4.576L49.011 3.424H53.971V4.432L48.915 8.912L52.627 14.048L54.339 14.832L53.763 16ZM60.5629 9.648C60.2109 9.648 59.8749 9.776 59.5549 10.032V14.192L62.0509 14.816L61.4749 15.984H55.1709V14.96L56.5949 13.744V10.384L55.1709 9.472V8.448L58.6909 7.04L59.2989 8.768L60.7069 7.312C60.9309 7.22667 61.1815 7.184 61.4589 7.184C62.0882 7.184 62.6162 7.32267 63.0429 7.6C63.4802 7.86667 63.7842 8.24 63.9549 8.72L62.2909 10.816H61.1549C61.1442 10.3893 61.0909 10.0907 60.9949 9.92C60.9095 9.73867 60.7655 9.648 60.5629 9.648ZM69.7626 16H64.5146V14.976L65.9386 13.76V10.352L64.5146 9.408V8.4L67.7626 7.04H68.8986V14.368L70.3386 14.832L69.7626 16ZM67.4106 2.208C67.912 2.208 68.3173 2.368 68.6266 2.688C68.9466 2.99733 69.1066 3.38133 69.1066 3.84C69.1066 4.17067 68.9893 4.48 68.7546 4.768C68.5306 5.04533 68.2426 5.26933 67.8906 5.44C67.5493 5.61067 67.2186 5.696 66.8986 5.696C66.408 5.696 65.9973 5.54133 65.6666 5.232C65.3466 4.912 65.1866 4.52267 65.1866 4.064C65.1866 3.73333 65.2986 3.42933 65.5226 3.152C65.7573 2.864 66.0506 2.63467 66.4026 2.464C66.7546 2.29333 67.0906 2.208 67.4106 2.208ZM75.62 13.888C75.62 13.7067 75.492 13.5253 75.236 13.344C74.9907 13.152 74.58 12.8907 74.004 12.56C73.4493 12.24 72.996 11.9627 72.644 11.728C72.292 11.4933 71.988 11.2267 71.732 10.928C71.4867 10.6293 71.364 10.3093 71.364 9.968C71.364 9.584 71.5507 9.17333 71.924 8.736C72.308 8.29867 72.7773 7.93067 73.332 7.632C73.8867 7.33333 74.3987 7.184 74.868 7.184C75.4333 7.184 76.0893 7.248 76.836 7.376C77.5933 7.49333 78.1427 7.62667 78.484 7.776V10.496H77.364C77.0973 10.0053 76.7667 9.62133 76.372 9.344C75.988 9.06667 75.5933 8.928 75.188 8.928C75.0067 8.928 74.8627 8.98133 74.756 9.088C74.66 9.184 74.612 9.312 74.612 9.472C74.612 9.67467 74.74 9.872 74.996 10.064C75.2627 10.256 75.6947 10.5227 76.292 10.864C76.836 11.1733 77.2787 11.4453 77.62 11.68C77.9613 11.904 78.2547 12.16 78.5 12.448C78.7453 12.736 78.868 13.0453 78.868 13.376C78.868 13.7707 78.6707 14.1867 78.276 14.624C77.8813 15.0507 77.396 15.4133 76.82 15.712C76.2547 16.0107 75.7373 16.16 75.268 16.16C74.66 16.16 73.94 16.1013 73.108 15.984C72.2867 15.856 71.7 15.7173 71.348 15.568V12.72H72.468C72.7773 13.2533 73.156 13.6693 73.604 13.968C74.0627 14.2667 74.516 14.416 74.964 14.416C75.156 14.416 75.3107 14.368 75.428 14.272C75.556 14.1653 75.62 14.0373 75.62 13.888ZM90.4295 16H86.6055V10.976C86.6055 10.496 86.5308 10.1547 86.3815 9.952C86.2428 9.74933 85.9975 9.648 85.6455 9.648C85.1442 9.648 84.6375 9.792 84.1255 10.08V14.368L85.5655 14.832L84.9895 16H79.7415V14.976L81.1655 13.76V5.344L79.7415 4.4V3.376L82.9895 2.032H84.1255V8.656L85.7895 7.312C86.0775 7.22667 86.4135 7.184 86.7975 7.184C87.6402 7.184 88.3122 7.408 88.8135 7.856C89.3148 8.29333 89.5655 8.89067 89.5655 9.648V14.368L91.0055 14.832L90.4295 16ZM106.585 16H96.329V14.976L97.833 13.792V5.088L96.041 4.576L96.617 3.424H106.425L107.673 3.136V7.328L106.665 7.76L104.681 4.8H101.001V8.896H102.729L103.897 7.168H104.921V11.776L103.753 12.352L102.697 10.256H101.001V14.624H104.537L106.825 11.344L107.833 11.76V16.288L106.585 16ZM120.093 15.984H116.269V10.96C116.269 10.48 116.195 10.1387 116.045 9.936C115.907 9.73333 115.661 9.632 115.309 9.632C114.808 9.632 114.301 9.776 113.789 10.064V14.352L115.229 14.816L114.653 15.984H109.405V14.96L110.829 13.744V10.384L109.405 9.472V8.448L112.925 7.04L113.565 8.832L115.453 7.312C115.741 7.22667 116.077 7.184 116.461 7.184C117.304 7.184 117.976 7.408 118.477 7.856C118.979 8.29333 119.229 8.89067 119.229 9.648V14.368L120.669 14.816L120.093 15.984ZM127.085 16.032C126.679 16.1173 126.21 16.16 125.677 16.16C124.599 16.16 123.815 15.9307 123.325 15.472C122.834 15.0027 122.589 14.2827 122.589 13.312V9.008H120.861V8.08L124.429 4.288H125.549V7.824H128.429V9.008H125.549V13.12C125.549 13.8027 125.965 14.144 126.797 14.144C127.021 14.144 127.234 14.1173 127.437 14.064C127.65 14.0107 127.911 13.9093 128.221 13.76L128.701 14.752L127.085 16.032ZM134.786 7.184C135.938 7.184 136.828 7.62133 137.458 8.496C138.098 9.36 138.407 10.5813 138.386 12.16H132.674C132.791 12.7253 133.01 13.1787 133.33 13.52C133.65 13.8507 134.066 14.016 134.578 14.016C135.335 14.016 136.439 13.6907 137.89 13.04L138.37 14.032L136.066 15.888C135.394 16.0693 134.588 16.16 133.65 16.16C132.85 16.16 132.13 15.9787 131.49 15.616C130.85 15.2427 130.348 14.736 129.986 14.096C129.634 13.456 129.458 12.7413 129.458 11.952C129.458 11.0987 129.735 10.3093 130.29 9.584C130.844 8.848 131.538 8.26667 132.37 7.84C133.202 7.40267 134.007 7.184 134.786 7.184ZM133.922 9.184C133.484 9.184 133.154 9.33333 132.93 9.632C132.716 9.92 132.599 10.368 132.578 10.976H135.426C135.362 10.368 135.218 9.92 134.994 9.632C134.77 9.33333 134.412 9.184 133.922 9.184ZM145.266 9.648C144.914 9.648 144.578 9.776 144.258 10.032V14.192L146.754 14.816L146.178 15.984H139.874V14.96L141.298 13.744V10.384L139.874 9.472V8.448L143.394 7.04L144.002 8.768L145.41 7.312C145.634 7.22667 145.885 7.184 146.162 7.184C146.791 7.184 147.319 7.32267 147.746 7.6C148.183 7.86667 148.487 8.24 148.658 8.72L146.994 10.816H145.858C145.847 10.3893 145.794 10.0907 145.698 9.92C145.613 9.73867 145.469 9.648 145.266 9.648ZM154.674 16.144C154.279 16.144 153.922 16.048 153.602 15.856V18.256L156.098 18.896L155.522 20.048H149.218V19.04L150.642 17.808V10.384L149.218 9.472V8.448L152.738 7.04L153.378 8.832L155.282 7.312C155.623 7.22667 156.012 7.184 156.45 7.184C157.132 7.184 157.746 7.37067 158.29 7.744C158.834 8.10667 159.255 8.61333 159.554 9.264C159.863 9.904 160.018 10.6133 160.018 11.392C160.018 12.2347 159.74 13.024 159.186 13.76C158.631 14.496 157.932 15.0827 157.09 15.52C156.258 15.9467 155.452 16.16 154.674 16.16V16.144ZM155.41 9.584C154.759 9.584 154.156 9.744 153.602 10.064V12.496C153.602 12.9653 153.772 13.36 154.114 13.68C154.466 13.9893 154.962 14.144 155.602 14.144C156.466 14.144 156.898 13.472 156.898 12.128C156.898 11.3813 156.77 10.7733 156.514 10.304C156.268 9.824 155.9 9.584 155.41 9.584ZM166.891 9.648C166.539 9.648 166.203 9.776 165.883 10.032V14.192L168.379 14.816L167.803 15.984H161.499V14.96L162.923 13.744V10.384L161.499 9.472V8.448L165.019 7.04L165.627 8.768L167.035 7.312C167.259 7.22667 167.51 7.184 167.787 7.184C168.416 7.184 168.944 7.32267 169.371 7.6C169.808 7.86667 170.112 8.24 170.283 8.72L168.619 10.816H167.483C167.472 10.3893 167.419 10.0907 167.323 9.92C167.238 9.73867 167.094 9.648 166.891 9.648ZM176.091 16H170.843V14.976L172.267 13.76V10.352L170.843 9.408V8.4L174.091 7.04H175.227V14.368L176.667 14.832L176.091 16ZM173.739 2.208C174.24 2.208 174.645 2.368 174.955 2.688C175.275 2.99733 175.435 3.38133 175.435 3.84C175.435 4.17067 175.317 4.48 175.083 4.768C174.859 5.04533 174.571 5.26933 174.219 5.44C173.877 5.61067 173.547 5.696 173.227 5.696C172.736 5.696 172.325 5.54133 171.995 5.232C171.675 4.912 171.515 4.52267 171.515 4.064C171.515 3.73333 171.627 3.42933 171.851 3.152C172.085 2.864 172.379 2.63467 172.731 2.464C173.083 2.29333 173.419 2.208 173.739 2.208ZM181.948 13.888C181.948 13.7067 181.82 13.5253 181.564 13.344C181.319 13.152 180.908 12.8907 180.332 12.56C179.777 12.24 179.324 11.9627 178.972 11.728C178.62 11.4933 178.316 11.2267 178.06 10.928C177.815 10.6293 177.692 10.3093 177.692 9.968C177.692 9.584 177.879 9.17333 178.252 8.736C178.636 8.29867 179.105 7.93067 179.66 7.632C180.215 7.33333 180.727 7.184 181.196 7.184C181.761 7.184 182.417 7.248 183.164 7.376C183.921 7.49333 184.471 7.62667 184.812 7.776V10.496H183.692C183.425 10.0053 183.095 9.62133 182.7 9.344C182.316 9.06667 181.921 8.928 181.516 8.928C181.335 8.928 181.191 8.98133 181.084 9.088C180.988 9.184 180.94 9.312 180.94 9.472C180.94 9.67467 181.068 9.872 181.324 10.064C181.591 10.256 182.023 10.5227 182.62 10.864C183.164 11.1733 183.607 11.4453 183.948 11.68C184.289 11.904 184.583 12.16 184.828 12.448C185.073 12.736 185.196 13.0453 185.196 13.376C185.196 13.7707 184.999 14.1867 184.604 14.624C184.209 15.0507 183.724 15.4133 183.148 15.712C182.583 16.0107 182.065 16.16 181.596 16.16C180.988 16.16 180.268 16.1013 179.436 15.984C178.615 15.856 178.028 15.7173 177.676 15.568V12.72H178.796C179.105 13.2533 179.484 13.6693 179.932 13.968C180.391 14.2667 180.844 14.416 181.292 14.416C181.484 14.416 181.639 14.368 181.756 14.272C181.884 14.1653 181.948 14.0373 181.948 13.888ZM191.958 7.184C193.11 7.184 194 7.62133 194.63 8.496C195.27 9.36 195.579 10.5813 195.558 12.16H189.846C189.963 12.7253 190.182 13.1787 190.502 13.52C190.822 13.8507 191.238 14.016 191.75 14.016C192.507 14.016 193.611 13.6907 195.062 13.04L195.542 14.032L193.238 15.888C192.566 16.0693 191.76 16.16 190.822 16.16C190.022 16.16 189.302 15.9787 188.662 15.616C188.022 15.2427 187.52 14.736 187.158 14.096C186.806 13.456 186.63 12.7413 186.63 11.952C186.63 11.0987 186.907 10.3093 187.462 9.584C188.016 8.848 188.71 8.26667 189.542 7.84C190.374 7.40267 191.179 7.184 191.958 7.184ZM191.094 9.184C190.656 9.184 190.326 9.33333 190.102 9.632C189.888 9.92 189.771 10.368 189.75 10.976H192.598C192.534 10.368 192.39 9.92 192.166 9.632C191.942 9.33333 191.584 9.184 191.094 9.184Z" fill="white"/>
</svg>
