<svg width="156" height="40" viewBox="0 0 156 40" fill="none" xmlns="http://www.w3.org/2000/svg">
<path d="M17.52 16.016H11.616V14.992L13.12 13.808V6.528L9.248 16.016H7.712L3.728 6.384V14.16L5.552 14.848L4.96 16.016H0.704V14.992L2.208 13.808V5.296L0.416 4.576L0.992 3.424H5.808L9.36 11.968L12.832 3.424H17.824V4.432L16.304 5.616V14.384L18.112 14.848L17.52 16.016ZM19.8916 18.304L18.5796 18.016L22.8036 0.863999L24.1316 1.136L19.8916 18.304ZM31.4511 13.424C31.4511 13.104 31.3231 12.8 31.0671 12.512C30.8218 12.224 30.5178 11.9627 30.1551 11.728C29.7925 11.4827 29.2858 11.1733 28.6351 10.8C27.8351 10.3413 27.1951 9.952 26.7151 9.632C26.2351 9.30133 25.8245 8.91733 25.4831 8.48C25.1418 8.032 24.9711 7.54133 24.9711 7.008C24.9711 6.47467 25.2218 5.904 25.7231 5.296C26.2245 4.67733 26.8378 4.16 27.5631 3.744C28.2991 3.31733 28.9711 3.104 29.5791 3.104C30.3151 3.104 31.1738 3.184 32.1551 3.344C33.1471 3.504 33.8725 3.67467 34.3311 3.856V7.472H32.5391C32.1338 6.608 31.6698 5.936 31.1471 5.456C30.6245 4.976 30.0805 4.736 29.5151 4.736C29.1418 4.736 28.8485 4.85867 28.6351 5.104C28.4218 5.33867 28.3151 5.64267 28.3151 6.016C28.3151 6.35733 28.4431 6.68267 28.6991 6.992C28.9551 7.29067 29.2698 7.568 29.6431 7.824C30.0271 8.06933 30.5498 8.37333 31.2111 8.736C31.9898 9.17333 32.6138 9.552 33.0831 9.872C33.5631 10.192 33.9685 10.5707 34.2991 11.008C34.6405 11.4347 34.8111 11.9093 34.8111 12.432C34.8111 12.9653 34.5391 13.5413 33.9951 14.16C33.4618 14.768 32.8111 15.2853 32.0431 15.712C31.2751 16.128 30.5711 16.336 29.9311 16.336C29.1525 16.336 28.2351 16.256 27.1791 16.096C26.1231 15.936 25.3605 15.7653 24.8911 15.584V11.952H26.6671C27.1045 12.816 27.6165 13.488 28.2031 13.968C28.8005 14.448 29.4031 14.688 30.0111 14.688C30.4485 14.688 30.7951 14.5653 31.0511 14.32C31.3178 14.0747 31.4511 13.776 31.4511 13.424ZM7.184 33.832L6.608 35H0.704V33.976L2.208 32.68V24.072L0.416 23.576L0.992 22.424H6.896V23.432L5.376 24.744V33.336L7.184 33.832ZM13.888 35H10.336L5.904 28.696L10.432 24.696L8.56 23.576L9.136 22.424H14.096V23.432L9.04 27.912L12.752 33.048L14.464 33.832L13.888 35ZM20.6879 28.648C20.3359 28.648 19.9999 28.776 19.6799 29.032V33.192L22.1759 33.816L21.5999 34.984H15.2959V33.96L16.7199 32.744V29.384L15.2959 28.472V27.448L18.8159 26.04L19.4239 27.768L20.8319 26.312C21.0559 26.2267 21.3065 26.184 21.5839 26.184C22.2132 26.184 22.7412 26.3227 23.1679 26.6C23.6052 26.8667 23.9092 27.24 24.0799 27.72L22.4159 29.816H21.2799C21.2692 29.3893 21.2159 29.0907 21.1199 28.92C21.0345 28.7387 20.8905 28.648 20.6879 28.648ZM29.8876 35H24.6396V33.976L26.0636 32.76V29.352L24.6396 28.408V27.4L27.8876 26.04H29.0236V33.368L30.4636 33.832L29.8876 35ZM27.5356 21.208C28.037 21.208 28.4423 21.368 28.7516 21.688C29.0716 21.9973 29.2316 22.3813 29.2316 22.84C29.2316 23.1707 29.1143 23.48 28.8796 23.768C28.6556 24.0453 28.3676 24.2693 28.0156 24.44C27.6743 24.6107 27.3436 24.696 27.0236 24.696C26.533 24.696 26.1223 24.5413 25.7916 24.232C25.4716 23.912 25.3116 23.5227 25.3116 23.064C25.3116 22.7333 25.4236 22.4293 25.6476 22.152C25.8823 21.864 26.1756 21.6347 26.5276 21.464C26.8796 21.2933 27.2156 21.208 27.5356 21.208ZM35.745 32.888C35.745 32.7067 35.617 32.5253 35.361 32.344C35.1157 32.152 34.705 31.8907 34.129 31.56C33.5743 31.24 33.121 30.9627 32.769 30.728C32.417 30.4933 32.113 30.2267 31.857 29.928C31.6117 29.6293 31.489 29.3093 31.489 28.968C31.489 28.584 31.6757 28.1733 32.049 27.736C32.433 27.2987 32.9023 26.9307 33.457 26.632C34.0117 26.3333 34.5237 26.184 34.993 26.184C35.5583 26.184 36.2143 26.248 36.961 26.376C37.7183 26.4933 38.2677 26.6267 38.609 26.776V29.496H37.489C37.2223 29.0053 36.8917 28.6213 36.497 28.344C36.113 28.0667 35.7183 27.928 35.313 27.928C35.1317 27.928 34.9877 27.9813 34.881 28.088C34.785 28.184 34.737 28.312 34.737 28.472C34.737 28.6747 34.865 28.872 35.121 29.064C35.3877 29.256 35.8197 29.5227 36.417 29.864C36.961 30.1733 37.4037 30.4453 37.745 30.68C38.0863 30.904 38.3797 31.16 38.625 31.448C38.8703 31.736 38.993 32.0453 38.993 32.376C38.993 32.7707 38.7957 33.1867 38.401 33.624C38.0063 34.0507 37.521 34.4133 36.945 34.712C36.3797 35.0107 35.8623 35.16 35.393 35.16C34.785 35.16 34.065 35.1013 33.233 34.984C32.4117 34.856 31.825 34.7173 31.473 34.568V31.72H32.593C32.9023 32.2533 33.281 32.6693 33.729 32.968C34.1877 33.2667 34.641 33.416 35.089 33.416C35.281 33.416 35.4357 33.368 35.553 33.272C35.681 33.1653 35.745 33.0373 35.745 32.888ZM50.5545 35H46.7305V29.976C46.7305 29.496 46.6558 29.1547 46.5065 28.952C46.3678 28.7493 46.1225 28.648 45.7705 28.648C45.2692 28.648 44.7625 28.792 44.2505 29.08V33.368L45.6905 33.832L45.1145 35H39.8665V33.976L41.2905 32.76V24.344L39.8665 23.4V22.376L43.1145 21.032H44.2505V27.656L45.9145 26.312C46.2025 26.2267 46.5385 26.184 46.9225 26.184C47.7652 26.184 48.4372 26.408 48.9385 26.856C49.4398 27.2933 49.6905 27.8907 49.6905 28.648V33.368L51.1305 33.832L50.5545 35ZM66.71 35H56.454V33.976L57.958 32.792V24.088L56.166 23.576L56.742 22.424H66.55L67.798 22.136V26.328L66.79 26.76L64.806 23.8H61.126V27.896H62.854L64.022 26.168H65.046V30.776L63.878 31.352L62.822 29.256H61.126V33.624H64.662L66.95 30.344L67.958 30.76V35.288L66.71 35ZM80.2183 34.984H76.3943V29.96C76.3943 29.48 76.3196 29.1387 76.1703 28.936C76.0316 28.7333 75.7863 28.632 75.4343 28.632C74.9329 28.632 74.4263 28.776 73.9143 29.064V33.352L75.3543 33.816L74.7783 34.984H69.5303V33.96L70.9543 32.744V29.384L69.5303 28.472V27.448L73.0503 26.04L73.6903 27.832L75.5783 26.312C75.8663 26.2267 76.2023 26.184 76.5863 26.184C77.4289 26.184 78.1009 26.408 78.6023 26.856C79.1036 27.2933 79.3543 27.8907 79.3543 28.648V33.368L80.7943 33.816L80.2183 34.984ZM87.2095 35.032C86.8042 35.1173 86.3348 35.16 85.8015 35.16C84.7242 35.16 83.9402 34.9307 83.4495 34.472C82.9588 34.0027 82.7135 33.2827 82.7135 32.312V28.008H80.9855V27.08L84.5535 23.288H85.6735V26.824H88.5535V28.008H85.6735V32.12C85.6735 32.8027 86.0895 33.144 86.9215 33.144C87.1455 33.144 87.3588 33.1173 87.5615 33.064C87.7748 33.0107 88.0362 32.9093 88.3455 32.76L88.8255 33.752L87.2095 35.032ZM94.9108 26.184C96.0628 26.184 96.9534 26.6213 97.5828 27.496C98.2228 28.36 98.5321 29.5813 98.5108 31.16H92.7988C92.9161 31.7253 93.1348 32.1787 93.4548 32.52C93.7748 32.8507 94.1908 33.016 94.7028 33.016C95.4601 33.016 96.5641 32.6907 98.0148 32.04L98.4948 33.032L96.1908 34.888C95.5188 35.0693 94.7134 35.16 93.7748 35.16C92.9748 35.16 92.2548 34.9787 91.6148 34.616C90.9748 34.2427 90.4734 33.736 90.1108 33.096C89.7588 32.456 89.5828 31.7413 89.5828 30.952C89.5828 30.0987 89.8601 29.3093 90.4148 28.584C90.9694 27.848 91.6628 27.2667 92.4948 26.84C93.3268 26.4027 94.1321 26.184 94.9108 26.184ZM94.0468 28.184C93.6094 28.184 93.2788 28.3333 93.0548 28.632C92.8414 28.92 92.7241 29.368 92.7028 29.976H95.5508C95.4868 29.368 95.3428 28.92 95.1188 28.632C94.8948 28.3333 94.5374 28.184 94.0468 28.184ZM105.391 28.648C105.039 28.648 104.703 28.776 104.383 29.032V33.192L106.879 33.816L106.303 34.984H99.999V33.96L101.423 32.744V29.384L99.999 28.472V27.448L103.519 26.04L104.127 27.768L105.535 26.312C105.759 26.2267 106.01 26.184 106.287 26.184C106.916 26.184 107.444 26.3227 107.871 26.6C108.308 26.8667 108.612 27.24 108.783 27.72L107.119 29.816H105.983C105.972 29.3893 105.919 29.0907 105.823 28.92C105.738 28.7387 105.594 28.648 105.391 28.648ZM114.799 35.144C114.404 35.144 114.047 35.048 113.727 34.856V37.256L116.223 37.896L115.647 39.048H109.343V38.04L110.767 36.808V29.384L109.343 28.472V27.448L112.863 26.04L113.503 27.832L115.407 26.312C115.748 26.2267 116.137 26.184 116.575 26.184C117.257 26.184 117.871 26.3707 118.415 26.744C118.959 27.1067 119.38 27.6133 119.679 28.264C119.988 28.904 120.143 29.6133 120.143 30.392C120.143 31.2347 119.865 32.024 119.311 32.76C118.756 33.496 118.057 34.0827 117.215 34.52C116.383 34.9467 115.577 35.16 114.799 35.16V35.144ZM115.535 28.584C114.884 28.584 114.281 28.744 113.727 29.064V31.496C113.727 31.9653 113.897 32.36 114.239 32.68C114.591 32.9893 115.087 33.144 115.727 33.144C116.591 33.144 117.023 32.472 117.023 31.128C117.023 30.3813 116.895 29.7733 116.639 29.304C116.393 28.824 116.025 28.584 115.535 28.584ZM127.016 28.648C126.664 28.648 126.328 28.776 126.008 29.032V33.192L128.504 33.816L127.928 34.984H121.624V33.96L123.048 32.744V29.384L121.624 28.472V27.448L125.144 26.04L125.752 27.768L127.16 26.312C127.384 26.2267 127.635 26.184 127.912 26.184C128.541 26.184 129.069 26.3227 129.496 26.6C129.933 26.8667 130.237 27.24 130.408 27.72L128.744 29.816H127.608C127.597 29.3893 127.544 29.0907 127.448 28.92C127.363 28.7387 127.219 28.648 127.016 28.648ZM136.216 35H130.968V33.976L132.392 32.76V29.352L130.968 28.408V27.4L134.216 26.04H135.352V33.368L136.792 33.832L136.216 35ZM133.864 21.208C134.365 21.208 134.77 21.368 135.08 21.688C135.4 21.9973 135.56 22.3813 135.56 22.84C135.56 23.1707 135.442 23.48 135.208 23.768C134.984 24.0453 134.696 24.2693 134.344 24.44C134.002 24.6107 133.672 24.696 133.352 24.696C132.861 24.696 132.45 24.5413 132.12 24.232C131.8 23.912 131.64 23.5227 131.64 23.064C131.64 22.7333 131.752 22.4293 131.976 22.152C132.21 21.864 132.504 21.6347 132.856 21.464C133.208 21.2933 133.544 21.208 133.864 21.208ZM142.073 32.888C142.073 32.7067 141.945 32.5253 141.689 32.344C141.444 32.152 141.033 31.8907 140.457 31.56C139.902 31.24 139.449 30.9627 139.097 30.728C138.745 30.4933 138.441 30.2267 138.185 29.928C137.94 29.6293 137.817 29.3093 137.817 28.968C137.817 28.584 138.004 28.1733 138.377 27.736C138.761 27.2987 139.23 26.9307 139.785 26.632C140.34 26.3333 140.852 26.184 141.321 26.184C141.886 26.184 142.542 26.248 143.289 26.376C144.046 26.4933 144.596 26.6267 144.937 26.776V29.496H143.817C143.55 29.0053 143.22 28.6213 142.825 28.344C142.441 28.0667 142.046 27.928 141.641 27.928C141.46 27.928 141.316 27.9813 141.209 28.088C141.113 28.184 141.065 28.312 141.065 28.472C141.065 28.6747 141.193 28.872 141.449 29.064C141.716 29.256 142.148 29.5227 142.745 29.864C143.289 30.1733 143.732 30.4453 144.073 30.68C144.414 30.904 144.708 31.16 144.953 31.448C145.198 31.736 145.321 32.0453 145.321 32.376C145.321 32.7707 145.124 33.1867 144.729 33.624C144.334 34.0507 143.849 34.4133 143.273 34.712C142.708 35.0107 142.19 35.16 141.721 35.16C141.113 35.16 140.393 35.1013 139.561 34.984C138.74 34.856 138.153 34.7173 137.801 34.568V31.72H138.921C139.23 32.2533 139.609 32.6693 140.057 32.968C140.516 33.2667 140.969 33.416 141.417 33.416C141.609 33.416 141.764 33.368 141.881 33.272C142.009 33.1653 142.073 33.0373 142.073 32.888ZM152.083 26.184C153.235 26.184 154.125 26.6213 154.755 27.496C155.395 28.36 155.704 29.5813 155.683 31.16H149.971C150.088 31.7253 150.307 32.1787 150.627 32.52C150.947 32.8507 151.363 33.016 151.875 33.016C152.632 33.016 153.736 32.6907 155.187 32.04L155.667 33.032L153.363 34.888C152.691 35.0693 151.885 35.16 150.947 35.16C150.147 35.16 149.427 34.9787 148.787 34.616C148.147 34.2427 147.645 33.736 147.283 33.096C146.931 32.456 146.755 31.7413 146.755 30.952C146.755 30.0987 147.032 29.3093 147.587 28.584C148.141 27.848 148.835 27.2667 149.667 26.84C150.499 26.4027 151.304 26.184 152.083 26.184ZM151.219 28.184C150.781 28.184 150.451 28.3333 150.227 28.632C150.013 28.92 149.896 29.368 149.875 29.976H152.723C152.659 29.368 152.515 28.92 152.291 28.632C152.067 28.3333 151.709 28.184 151.219 28.184Z" fill="#B62727"/>
</svg>
