<svg width="426" height="123" viewBox="0 0 426 123" fill="none" xmlns="http://www.w3.org/2000/svg">
<g filter="url(#filter0_d_613_7)">
<path d="M81.7075 5H17.5104H14.5923L30.85 31.7029C38.3536 31.57 56.3621 31.3841 68.3678 31.7029C83.3749 32.1014 81.7075 30.5072 92.5459 44.8551C101.217 56.3333 100.049 62.7899 97.965 68.3696C97.2206 70.3623 93.3795 77.1377 88.3771 83.5145C83.3628 89.9066 73.0923 90.9541 68.3678 90.2899H30.85L17.5104 115H87.5435L97.5483 111.014C103.662 107.295 117.224 95.2319 124.227 78.3333C131.231 61.4348 126.729 48.8406 124.644 44.8551C123.53 42.7231 122.06 36.8841 111.722 24.1304C101.383 11.3768 87.4046 6.0628 81.7075 5Z" fill="#4A98DF"/>
<path d="M75.4545 39.2754H8.75623C5.08794 40.2319 4.17077 43.3937 4.17072 44.8551V71.9565C3.17025 79.2899 6.81086 81.6546 8.75623 81.9203H71.7027C78.039 81.9203 80.4569 80.5918 80.8737 79.9275L90.4616 63.9855H94.2134C97.5483 62.0725 95.6029 58.9372 94.2134 57.6087H76.2882C72.9533 60.1594 74.8987 62.9227 76.2882 63.9855H83.3748C78.7059 69.7246 73.5091 65.7126 71.7027 62.7899C69.7018 58.3261 73.3702 55.3502 75.4545 54.4203H88.7941C83.1248 43.2609 77.5388 39.6739 75.4545 39.2754Z" fill="#B62727"/>
</g>
<path d="M201.095 53.25C201.095 44.3833 199.86 37.955 197.39 33.965C194.983 29.975 191.658 27.98 187.415 27.98C183.235 27.98 179.245 29.8483 175.445 33.585C171.708 37.2583 168.763 41.9133 166.61 47.55C164.52 53.1867 163.475 58.8867 163.475 64.65C163.475 72.5667 164.773 79.0583 167.37 84.125C170.03 89.1917 174.02 91.725 179.34 91.725C183.773 91.725 187.668 89.7933 191.025 85.93C194.445 82.0033 196.978 77.1583 198.625 71.395C200.272 65.6317 201.095 59.5833 201.095 53.25ZM202.805 88.02C199.955 91.1233 196.377 93.625 192.07 95.525C187.827 97.425 183.172 98.375 178.105 98.375C173.038 98.375 168.573 97.235 164.71 94.955C160.91 92.675 157.87 89.635 155.59 85.835C151.03 78.235 148.75 69.3683 148.75 59.235C148.75 49.1017 151.252 40.0767 156.255 32.16C161.322 24.2433 168.067 19.24 176.49 17.15C176.997 17.2767 177.472 17.53 177.915 17.91C178.422 18.29 178.707 18.7017 178.77 19.145C170.6 25.0983 165.66 33.205 163.95 43.465C166.61 35.9917 170.6 30.165 175.92 25.985C181.303 21.7417 187.067 19.62 193.21 19.62C199.353 19.62 204.578 22.28 208.885 27.6C213.255 32.8567 215.44 40.4883 215.44 50.495C215.44 60.3117 213.603 69.1467 209.93 77C208.03 81.18 205.655 84.8533 202.805 88.02ZM245.152 24.465C245.659 25.4783 245.944 26.4283 246.007 27.315C246.134 28.2017 246.197 29.8167 246.197 32.16C246.197 34.5033 245.405 41.09 243.822 51.92L242.967 57.43C251.517 50.4 258.737 43.5917 264.627 37.005C270.517 30.355 274.665 24.7183 277.072 20.095C279.162 23.7683 280.207 27.3783 280.207 30.925C280.207 34.4083 278.402 37.9867 274.792 41.66C271.245 45.3333 265.862 49.83 258.642 55.15C263.075 69.1467 268.047 79.9767 273.557 87.64C275.9 90.87 278.877 94.385 282.487 98.185C280.144 98.8183 277.8 99.135 275.457 99.135C273.114 99.135 270.707 98.4067 268.237 96.95C265.767 95.4933 263.614 93.72 261.777 91.63C260.004 89.54 258.167 86.7533 256.267 83.27C253.544 78.14 250.599 71.395 247.432 63.035C245.659 64.365 243.727 65.7267 241.637 67.12C240.497 76.5567 239.927 83.7133 239.927 88.59C239.927 93.4033 240.37 96.855 241.257 98.945C235.874 97.5517 232.2 95.715 230.237 93.435C228.274 91.0917 227.292 87.8617 227.292 83.745C227.292 81.3383 227.957 75.2267 229.287 65.41C231.63 49.1333 232.802 36.53 232.802 27.6C232.802 25.7 232.675 23.1033 232.422 19.81C237.235 20.0633 240.75 20.8233 242.967 22.09C243.917 22.5967 244.645 23.3883 245.152 24.465ZM282.002 91.82C282.002 90.6167 283.839 86.12 287.512 78.33C291.186 70.54 295.334 61.705 299.957 51.825C304.644 41.8817 307.811 34.6617 309.457 30.165L311.167 25.51C310.661 24.6233 309.426 23.0083 307.462 20.665C309.742 19.905 311.706 19.525 313.352 19.525C315.062 19.525 316.456 19.6517 317.532 19.905C318.672 20.1583 319.654 20.6017 320.477 21.235C321.364 21.805 322.124 22.4067 322.757 23.04C323.454 23.6733 324.087 24.6233 324.657 25.89C325.227 27.0933 325.702 28.2017 326.082 29.215C326.462 30.165 326.874 31.5267 327.317 33.3C327.824 35.0733 328.204 36.625 328.457 37.955C328.774 39.2217 329.154 41.0267 329.597 43.37C330.104 45.65 330.611 47.8667 331.117 50.02C331.624 52.1733 332.511 56.29 333.777 62.37C335.044 68.3867 336.026 72.915 336.722 75.955C337.482 78.9317 338.527 82.2883 339.857 86.025C341.251 89.7617 342.707 92.7067 344.227 94.86C340.554 96.6333 337.577 97.52 335.297 97.52C333.017 97.52 331.339 96.95 330.262 95.81C329.186 94.6067 328.267 92.8333 327.507 90.49C326.747 88.0833 325.259 81.6867 323.042 71.3C321.586 72.5667 319.211 73.2633 315.917 73.39L299.672 73.96C295.809 83.3967 292.959 91.7883 291.122 99.135C285.042 96.9817 282.002 94.5433 282.002 91.82ZM315.537 38.145C314.651 40.1717 312.687 44.51 309.647 51.16C306.671 57.7467 304.359 63.0033 302.712 66.93H322.187C319.211 53.25 316.994 43.655 315.537 38.145ZM366.223 57.62C365.399 63.6367 364.766 69.0833 364.323 73.96C363.879 78.8367 363.658 82.985 363.658 86.405C363.658 89.825 363.784 93.1817 364.038 96.475C359.604 96.475 356.596 95.9683 355.013 94.955C353.493 93.8783 352.733 92.39 352.733 90.49C352.733 89.92 353.778 81.4333 355.868 65.03C357.958 48.5633 359.034 37.0367 359.098 30.45L358.243 29.215C356.659 26.8717 354.569 24.9083 351.973 23.325C351.339 22.945 350.959 22.6917 350.833 22.565C353.873 20.7283 356.786 19.81 359.573 19.81C365.146 19.81 369.231 21.6467 371.828 25.32C374.424 28.93 379.269 37.8917 386.363 52.205C387.123 53.7883 388.263 56.195 389.783 59.425C391.366 62.5917 392.633 65.1567 393.583 67.12C395.799 71.87 398.174 76.335 400.708 80.515C400.898 78.045 401.753 70.4767 403.273 57.81C404.856 45.08 405.648 35.01 405.648 27.6C405.648 25.6367 405.521 23.0717 405.268 19.905C409.701 19.905 412.678 20.4117 414.198 21.425C415.718 22.4383 416.478 23.8633 416.478 25.7C416.478 26.3967 415.433 35.2317 413.343 52.205C411.253 69.1783 410.208 80.9267 410.208 87.45C410.208 89.7933 410.271 91.5033 410.398 92.58C410.904 93.0233 411.728 93.5617 412.868 94.195C408.941 96.7283 405.299 97.995 401.943 97.995C398.586 97.995 395.673 96.1267 393.203 92.39C392.063 90.7433 388.231 83.7133 381.708 71.3C375.248 58.8233 370.656 50.1467 367.933 45.27C367.679 47.4233 367.109 51.54 366.223 57.62Z" fill="#B62727"/>
<defs>
<filter id="filter0_d_613_7" x="0" y="5" width="132" height="118" filterUnits="userSpaceOnUse" color-interpolation-filters="sRGB">
<feFlood flood-opacity="0" result="BackgroundImageFix"/>
<feColorMatrix in="SourceAlpha" type="matrix" values="0 0 0 0 0 0 0 0 0 0 0 0 0 0 0 0 0 0 127 0" result="hardAlpha"/>
<feOffset dy="4"/>
<feGaussianBlur stdDeviation="2"/>
<feComposite in2="hardAlpha" operator="out"/>
<feColorMatrix type="matrix" values="0 0 0 0 0 0 0 0 0 0 0 0 0 0 0 0 0 0 0.25 0"/>
<feBlend mode="normal" in2="BackgroundImageFix" result="effect1_dropShadow_613_7"/>
<feBlend mode="normal" in="SourceGraphic" in2="effect1_dropShadow_613_7" result="shape"/>
</filter>
</defs>
</svg>
